<svg width="142" height="140" viewBox="0 0 142 140" fill="none" xmlns="http://www.w3.org/2000/svg">
<path d="M28.1641 51.2481L30.6641 46.9148L37.0808 35.9981C37.6641 34.9147 39.2475 34.9147 39.9142 35.9981L48.8309 51.2481H35.0808H28.1641Z" stroke="white" stroke-width="2" stroke-miterlimit="10"/>
<path d="M27.418 110.58V108.58L27.668 54.6634L41.7514 54.5801H50.0848L50.0014 62.7468L49.8347 103.58V110.497L27.418 110.58Z" stroke="white" stroke-width="2" stroke-miterlimit="10"/>
<path d="M27.8359 121.248V114.248H49.3361V121.248C49.3361 126.081 46.086 130.081 42.086 130.081H35.086C31.086 130.081 27.8359 126.081 27.8359 121.248Z" stroke="white" stroke-width="2" stroke-miterlimit="10"/>
<path d="M99.0809 58.7467C98.4759 58.3031 97.6252 58.601 97.4526 59.3311C95.8206 66.2348 89.9353 96.042 100.614 129.716C100.672 129.901 100.759 130.079 100.869 130.239L101.115 130.598C101.135 130.627 101.157 130.654 101.182 130.679V130.679C101.405 130.902 101.766 130.902 101.989 130.679V130.679C102.014 130.654 102.037 130.627 102.057 130.598L102.295 130.249C102.41 130.082 102.49 129.927 102.547 129.732C103.574 126.257 114.11 89.2978 106.682 60.6737C106.441 59.7444 105.556 59.143 104.6 59.2299L101.664 59.4968C100.748 59.5801 99.7476 59.3301 99.0809 58.7467V58.7467Z" stroke="white" stroke-width="2" stroke-miterlimit="10"/>
<path d="M102.078 57.4152C101.245 57.4152 100.412 57.1652 99.8282 56.7485C97.3282 54.8318 91.4948 48.9151 98.4949 40.6651C98.4949 40.6651 105.745 32.165 117.162 36.2484C117.162 36.2484 110.912 40.165 112.745 45.7484C112.995 46.5818 113.162 47.4984 113.162 48.3318C113.078 51.3318 111.495 57.1652 102.078 57.4152Z" stroke="white" stroke-width="2" stroke-miterlimit="10"/>
<path d="M74.7514 55.082C76.3347 55.9986 77.0847 58.1653 75.7514 60.4987C73.0014 62.9987 69.8347 60.9153 69.8347 58.1653C69.8347 56.832 70.5847 55.7486 71.5847 55.1653L71.668 35.6652C71.668 35.2485 71.0847 35.0818 70.918 35.4985L59.668 58.9987L65.668 71.1654H80.5847L86.5848 58.9153L75.3347 35.4152C75.1681 34.9985 74.5847 35.1652 74.5847 35.5818C74.5847 40.2485 74.5014 53.082 74.5014 54.832C74.5847 54.9153 74.5847 54.9986 74.7514 55.082Z" stroke="white" stroke-width="2" stroke-miterlimit="10"/>
<path d="M137.502 73.8298C135.418 40.3296 108.668 13.4961 75.168 11.4961" stroke="white" stroke-width="2" stroke-miterlimit="10"/>
<path d="M68.5004 11.332C34.2502 12.582 6.58335 39.7489 4.5 73.7491" stroke="white" stroke-width="2" stroke-miterlimit="10"/>
<path d="M7.66671 74.6654V79.6654C7.66671 80.0821 7.25004 80.4987 6.83337 80.4987H1.83334C1.41667 80.4987 1 80.0821 1 79.6654V74.6654C1 74.2487 1.41667 73.832 1.83334 73.832H6.83337C7.25004 73.832 7.66671 74.1654 7.66671 74.6654Z" stroke="white" stroke-width="2" stroke-miterlimit="10"/>
<path d="M140.999 74.6654V79.6654C140.999 80.0821 140.665 80.4987 140.165 80.4987H135.165C134.665 80.4987 134.332 80.0821 134.332 79.6654V74.6654C134.332 74.2487 134.665 73.832 135.165 73.832H140.165C140.665 73.832 140.999 74.1654 140.999 74.6654Z" stroke="white" stroke-width="2" stroke-miterlimit="10"/>
<path d="M134.335 11.332C133.502 11.332 75.168 11.332 75.168 11.332" stroke="white" stroke-width="2" stroke-miterlimit="10"/>
<path d="M68.5017 11.332H7.66797" stroke="white" stroke-width="2" stroke-miterlimit="10"/>
<path d="M4.33335 14.6648C6.17431 14.6648 7.66671 13.1724 7.66671 11.3314C7.66671 9.49044 6.17431 7.99805 4.33335 7.99805C2.49239 7.99805 1 9.49044 1 11.3314C1 13.1724 2.49239 14.6648 4.33335 14.6648Z" stroke="white" stroke-width="2" stroke-miterlimit="10"/>
<path d="M137.665 14.6648C139.506 14.6648 140.999 13.1724 140.999 11.3314C140.999 9.49044 139.506 7.99805 137.665 7.99805C135.824 7.99805 134.332 9.49044 134.332 11.3314C134.332 13.1724 135.824 14.6648 137.665 14.6648Z" stroke="white" stroke-width="2" stroke-miterlimit="10"/>
<rect x="65.5508" y="72.5273" width="15.6468" height="57.1168" rx="3" stroke="white" stroke-width="2"/>
<path d="M82.1876 71.5273H64.1042C63.0456 71.5273 62.1875 72.3855 62.1875 73.444C62.1875 74.5026 63.0456 75.3607 64.1042 75.3607H82.1876C83.2462 75.3607 84.1043 74.5026 84.1043 73.444C84.1043 72.3855 83.2462 71.5273 82.1876 71.5273Z" stroke="white" stroke-width="2" stroke-miterlimit="10"/>
<path d="M75.1667 8.83139V13.8314C75.1667 14.2481 74.8334 14.6648 74.3334 14.6648H69.3333C68.8333 14.6648 68.5 14.2481 68.5 13.8314V8.83139C68.5 8.41472 68.8333 7.99805 69.3333 7.99805H74.3334C74.8334 7.99805 75.1667 8.33138 75.1667 8.83139Z" stroke="white" stroke-width="2" stroke-miterlimit="10"/>
</svg>
