<svg width="140" height="144" viewBox="0 0 140 144" fill="none" xmlns="http://www.w3.org/2000/svg">
<path d="M6.21153 47.102L1.42578 54.6487L4.20199 97.8782L31.7657 131.292L73.8054 142L114.06 126.037L130.419 100.241M15.9941 31.6757L24.6269 18.0623L64.981 2L106.922 12.8074L134.584 46.221L136.786 81.7776" stroke="white" stroke-width="2" stroke-miterlimit="10"/>
<path d="M38.4805 103.176L73.8047 140.909L81.7955 107.493M42.9964 94.541L72.9964 95.0865" stroke="white" stroke-width="2" stroke-miterlimit="10"/>
<path d="M31.7677 131.49L30.2656 107" stroke="white" stroke-width="2" stroke-miterlimit="10"/>
<path d="M120.331 76.2857L109.118 57M98.0011 58.5986L89.4562 82.7143M77.2868 85.3416L64.4297 66.7338" stroke="white" stroke-width="2" stroke-miterlimit="10"/>
<path d="M93.418 104.857L113.468 125.045L122.625 100.846M98 93.6837L113.419 90.8867" stroke="white" stroke-width="2" stroke-miterlimit="10"/>
<path d="M1.42578 54.6493L7.99735 51.0818M29.9835 37.7151L51.5688 23.2403M88.9336 49.0198L71.1426 53.3209M103.859 33.6569L106.029 13.502L75.8545 15.8231M58.6634 42.7151L59.5515 32.5655" stroke="white" stroke-width="2" stroke-miterlimit="10"/>
<path d="M64.88 2.09961L63.2501 8.21196M17.5843 95.7202L4.39844 97.2837L15.1382 56.6261M26.6421 81.2863L21.3896 57.2124M37.9953 83.0621L50.6697 65.838M31.096 48.863L45.1382 53.0036M21.7077 32.0006L25.22 18.9551L51.6963 17.4842" stroke="white" stroke-width="2" stroke-miterlimit="10"/>
<path d="M129.429 75.8828L130.82 67.5368L134.29 46.7152L113.715 46.0898" stroke="white" stroke-width="2" stroke-miterlimit="10"/>
<path d="M63.8428 33.6271C70.9336 33.6271 76.6818 27.8789 76.6818 20.7881C76.6818 13.6974 70.9336 7.94922 63.8428 7.94922C56.7521 7.94922 51.0039 13.6974 51.0039 20.7881C51.0039 27.8789 56.7521 33.6271 63.8428 33.6271Z" stroke="white" stroke-width="2" stroke-miterlimit="10"/>
<path d="M30.2647 106.68C37.3554 106.68 43.1036 100.932 43.1036 93.8409C43.1036 86.7501 37.3554 81.002 30.2647 81.002C23.174 81.002 17.4258 86.7501 17.4258 93.8409C17.4258 100.932 23.174 106.68 30.2647 106.68Z" stroke="white" stroke-width="2" stroke-miterlimit="10"/>
<path d="M19.2217 57.4239C26.3125 57.4239 32.0607 51.6758 32.0607 44.585C32.0607 37.4943 26.3125 31.7461 19.2217 31.7461C12.131 31.7461 6.38281 37.4943 6.38281 44.585C6.38281 51.6758 12.131 57.4239 19.2217 57.4239Z" stroke="white" stroke-width="2" stroke-miterlimit="10"/>
<path d="M125.315 101.049C132.406 101.049 138.154 95.3008 138.154 88.21C138.154 81.1193 132.406 75.3711 125.315 75.3711C118.225 75.3711 112.477 81.1193 112.477 88.21C112.477 95.3008 118.225 101.049 125.315 101.049Z" stroke="white" stroke-width="2" stroke-miterlimit="10"/>
<path d="M57.8936 68.3282C64.9844 68.3282 70.7325 62.5801 70.7325 55.4893C70.7325 48.3986 64.9844 42.6504 57.8936 42.6504C50.8029 42.6504 45.0547 48.3986 45.0547 55.4893C45.0547 62.5801 50.8029 68.3282 57.8936 68.3282Z" stroke="white" stroke-width="2" stroke-miterlimit="10"/>
<path d="M85.6553 107.99C92.7461 107.99 98.4943 102.242 98.4943 95.1514C98.4943 88.0607 92.7461 82.3125 85.6553 82.3125C78.5646 82.3125 72.8164 88.0607 72.8164 95.1514C72.8164 102.242 78.5646 107.99 85.6553 107.99Z" stroke="white" stroke-width="2" stroke-miterlimit="10"/>
<path d="M101.519 59.4044C108.609 59.4044 114.358 53.6562 114.358 46.5655C114.358 39.4747 108.609 33.7266 101.519 33.7266C94.4279 33.7266 88.6797 39.4747 88.6797 46.5655C88.6797 53.6562 94.4279 59.4044 101.519 59.4044Z" stroke="white" stroke-width="2" stroke-miterlimit="10"/>
<path fill-rule="evenodd" clip-rule="evenodd" d="M101.643 43.245C102.571 41.99 103.597 41.002 104.909 41.002C107.386 41.002 109.426 44.155 109.427 47.909C109.427 50.199 108.441 51.634 106.67 51.634C105.127 51.634 104.275 50.768 102.746 48.21L102.079 47.087L101.961 46.89C101.787 46.596 101.61 46.3036 101.431 46.013L100.253 48.093C98.5798 51.018 97.6378 51.634 96.3298 51.634C94.5118 51.634 93.4258 50.219 93.4258 47.975C93.4258 44.39 95.4208 41.002 98.0238 41.002C98.3428 41.002 98.6488 41.041 98.9478 41.124C99.2578 41.21 99.5588 41.344 99.8608 41.531C100.438 41.89 101.015 42.446 101.643 43.245ZM103.159 45.469C102.907 45.059 102.665 44.682 102.432 44.336L102.426 44.328C103.271 43.023 103.969 42.374 104.798 42.374C106.521 42.374 107.9 44.911 107.9 48.027C107.9 49.215 107.51 49.904 106.705 49.904C105.932 49.904 105.563 49.394 104.095 47.034L103.159 45.469ZM98.2718 42.758C98.9968 42.858 99.6568 43.392 100.612 44.759C100.061 45.6027 99.5157 46.4504 98.9768 47.302C97.6198 49.428 97.1508 49.905 96.3958 49.905C95.6188 49.905 95.1558 49.223 95.1558 48.005C95.1558 45.403 96.4538 42.741 98.0018 42.741C98.0928 42.741 98.1828 42.746 98.2718 42.758Z" fill="white"/>
<path d="M60.7961 53.4504L60.8132 53.2385C60.8604 52.5798 60.884 51.9195 60.8838 51.2591C60.8838 50.5188 60.6336 49.9946 60.106 49.5036C59.5444 48.9811 58.8644 48.7019 57.902 48.7019C56.9344 48.7019 56.2358 48.987 55.766 49.4576C55.1738 50.049 54.9508 50.4941 54.9508 51.2447C54.9508 51.688 55.0027 52.9415 55.0325 53.4725C55.0567 53.9066 54.9139 54.3334 54.6334 54.6656C54.6802 54.749 54.7227 54.8392 54.7636 54.9353C55.0189 55.5914 54.9321 56.2484 54.6342 56.8679C54.3007 57.564 54.0122 58.0533 53.4344 58.7009C53.2628 58.8935 53.0804 59.0762 52.888 59.2481C53.0323 59.3865 53.1509 59.5492 53.2386 59.7289C53.689 59.6889 54.1427 59.7101 54.5874 59.7918C55.2767 59.9161 55.7141 60.1612 56.4545 60.6947L56.4681 60.7041L56.6493 60.8334C57.1761 61.2079 57.3956 61.2981 57.9028 61.2981C58.4211 61.2981 58.6772 61.1951 59.1989 60.8283L59.375 60.7041C60.1205 60.1663 60.5723 59.9144 61.2735 59.7884C61.7118 59.7155 62.157 59.6944 62.6002 59.7255C62.689 59.5449 62.8092 59.3815 62.9551 59.243C62.7714 59.0774 62.5964 58.9024 62.4309 58.7188C61.9358 58.1672 61.5212 57.5484 61.1995 56.8807C60.8906 56.2433 60.7995 55.5702 61.0829 54.9055C61.117 54.8221 61.1552 54.7439 61.1952 54.6707C60.9078 54.3314 60.7645 53.8939 60.7961 53.4504ZM52.0183 53.3636C52.3749 53.3636 52.5289 53.6231 53.0557 53.6231C53.1893 53.6231 53.2769 53.5933 53.3331 53.567C53.3254 53.4342 53.2489 51.8769 53.2489 51.2447C53.2489 49.8082 53.8616 48.9555 54.5619 48.2543C55.2623 47.5531 56.3532 47 57.9028 47C59.4516 47 60.5119 47.5557 61.2659 48.2577C62.0198 48.9598 62.5857 49.9001 62.5857 51.26C62.5857 52.5832 62.5015 53.4674 62.4938 53.5712C62.5672 53.6089 62.6488 53.6279 62.7313 53.6265C63.2674 53.6265 63.2674 53.3627 63.863 53.3627C64.446 53.3627 64.6996 53.8478 64.6996 54.0631C64.6996 54.5915 63.9907 54.886 63.5678 55.0213C63.2537 55.1208 62.7755 55.2689 62.653 55.5616C62.59 55.7097 62.6164 55.902 62.7313 56.1386C62.7338 56.1454 63.8035 58.592 66.0756 58.9689C66.2756 58.9987 66.4083 59.174 66.4083 59.38C66.4083 59.6625 66.0934 59.905 65.7905 60.0454C65.4135 60.2156 64.8621 60.3603 64.1294 60.4752C64.0928 60.5415 64.0154 60.8879 63.9294 61.23C63.8145 61.6912 63.2478 61.5414 63.0861 61.5074C62.5833 61.4016 62.0655 61.3877 61.5578 61.4665C61.1476 61.5406 60.7808 61.7882 60.3707 62.0844C59.7639 62.5132 59.124 63 57.9028 63C56.6808 63 56.0783 62.5132 55.4716 62.0844C55.0614 61.7882 54.7015 61.5423 54.2836 61.4665C53.5195 61.3278 52.9476 61.4972 52.7561 61.5151C52.5638 61.5321 52.0396 61.7227 51.9086 61.2368C51.8703 61.0955 51.746 60.5492 51.7086 60.4752C50.9802 60.3603 50.4253 60.2088 50.0475 60.0386C49.7369 59.8982 49.4297 59.6616 49.4297 59.3757C49.4297 59.1757 49.5641 59.0013 49.7624 58.9655C52.0124 58.5545 52.9672 56.4084 53.0999 56.1318C53.2123 55.8969 53.2369 55.7063 53.1774 55.554C53.0557 55.2621 52.5783 55.1174 52.2643 55.0136C52.1749 54.9847 51.1274 54.6962 51.1274 54.0631C51.1274 53.8588 51.3018 53.5755 51.6226 53.4419C51.7489 53.3928 51.8829 53.3663 52.0183 53.3636Z" fill="white"/>
<path d="M67.1551 23.3166H66.4141L66.1515 23.0633C66.7377 22.3824 67.1661 21.5803 67.406 20.7144C67.646 19.8485 67.6916 18.9404 67.5396 18.0548C67.0988 15.4474 64.9228 13.3652 62.2966 13.0463C61.3734 12.9295 60.4356 13.0254 59.5551 13.3268C58.6746 13.6282 57.8747 14.127 57.2167 14.785C56.5586 15.4431 56.0598 16.243 55.7585 17.1235C55.4571 18.004 55.3611 18.9417 55.4779 19.865C55.7968 22.4912 57.879 24.6672 60.4865 25.108C61.372 25.26 62.2802 25.2144 63.146 24.9744C64.0119 24.7344 64.814 24.306 65.495 23.7199L65.7482 23.9825V24.7235L69.7344 28.7096C70.1189 29.0942 70.7473 29.0942 71.1319 28.7096C71.5164 28.3251 71.5164 27.6967 71.1319 27.3121L67.1551 23.3166ZM61.5275 23.3166C59.1921 23.3166 57.3069 21.4313 57.3069 19.0959C57.3069 16.7605 59.1921 14.8752 61.5275 14.8752C63.863 14.8752 65.7482 16.7605 65.7482 19.0959C65.7482 21.4313 63.863 23.3166 61.5275 23.3166Z" fill="white"/>
<path d="M25.5737 88.5748C25.5735 88.9922 25.4075 89.3925 25.1122 89.6875C24.8168 89.9825 24.4164 90.1482 23.999 90.148C23.5815 90.1477 23.1813 89.9817 22.8862 89.6864C22.5912 89.3911 22.4256 88.9906 22.4258 88.5732C22.426 88.1557 22.592 87.7555 22.8873 87.4605C23.1827 87.1654 23.5831 86.9998 24.0005 87C24.418 87.0002 24.8183 87.1662 25.1133 87.4616C25.4083 87.7569 25.5739 88.1573 25.5737 88.5748ZM25.621 91.3135H22.473V101.167H25.621V91.3135ZM30.5947 91.3135H27.4625V101.167H30.5632V95.9961C30.5632 93.1157 34.3172 92.8481 34.3172 95.9961V101.167H37.4258V94.9258C37.4258 90.07 31.8696 90.251 30.5632 92.6356L30.5947 91.3135Z" fill="white"/>
<path d="M22.7558 37.7031C22.7558 37.5166 22.8299 37.3378 22.9618 37.2059C23.0936 37.0741 23.2725 37 23.4589 37H25.8027C25.9892 37 26.168 37.0741 26.2999 37.2059C26.4317 37.3378 26.5058 37.5166 26.5058 37.7031V40.0469C26.5058 40.2334 26.4317 40.4122 26.2999 40.5441C26.168 40.6759 25.9892 40.75 25.8027 40.75C25.6162 40.75 25.4374 40.6759 25.3055 40.5441C25.1736 40.4122 25.0996 40.2334 25.0996 40.0469V39.4L20.9089 43.5906C20.7771 43.7223 20.5984 43.7963 20.4121 43.7963C20.2257 43.7963 20.047 43.7223 19.9152 43.5906L17.5996 41.275L13.6433 45.2312C13.5789 45.3003 13.5013 45.3557 13.4151 45.3942C13.3288 45.4326 13.2357 45.4533 13.1413 45.4549C13.0469 45.4566 12.9531 45.4392 12.8656 45.4039C12.778 45.3685 12.6985 45.3159 12.6317 45.2491C12.565 45.1823 12.5123 45.1028 12.477 45.0152C12.4416 44.9277 12.4242 44.8339 12.4259 44.7395C12.4276 44.6451 12.4482 44.552 12.4867 44.4657C12.5251 44.3795 12.5805 44.3019 12.6496 44.2375L17.1027 39.7844C17.2345 39.6527 17.4132 39.5787 17.5996 39.5787C17.7859 39.5787 17.9646 39.6527 18.0964 39.7844L20.4121 42.1L24.1058 38.4062H23.4589C23.2725 38.4062 23.0936 38.3322 22.9618 38.2003C22.8299 38.0684 22.7558 37.8896 22.7558 37.7031ZM13.1464 48.25C13.3329 48.25 13.5118 48.3241 13.6436 48.4559C13.7755 48.5878 13.8496 48.7666 13.8496 48.9531V51.2969C13.8496 51.4834 13.7755 51.6622 13.6436 51.7941C13.5118 51.9259 13.3329 52 13.1464 52C12.96 52 12.7811 51.9259 12.6493 51.7941C12.5174 51.6622 12.4433 51.4834 12.4433 51.2969V48.9531C12.4433 48.7666 12.5174 48.5878 12.6493 48.4559C12.7811 48.3241 12.96 48.25 13.1464 48.25ZM17.5996 46.1406C17.5996 45.9541 17.5255 45.7753 17.3936 45.6434C17.2618 45.5116 17.0829 45.4375 16.8964 45.4375C16.71 45.4375 16.5311 45.5116 16.3993 45.6434C16.2674 45.7753 16.1933 45.9541 16.1933 46.1406V51.2969C16.1933 51.4834 16.2674 51.6622 16.3993 51.7941C16.5311 51.9259 16.71 52 16.8964 52C17.0829 52 17.2618 51.9259 17.3936 51.7941C17.5255 51.6622 17.5996 51.4834 17.5996 51.2969V46.1406ZM20.6464 47.3125C20.8329 47.3125 21.0118 47.3866 21.1436 47.5184C21.2755 47.6503 21.3496 47.8291 21.3496 48.0156V51.2969C21.3496 51.4834 21.2755 51.6622 21.1436 51.7941C21.0118 51.9259 20.8329 52 20.6464 52C20.46 52 20.2811 51.9259 20.1493 51.7941C20.0174 51.6622 19.9433 51.4834 19.9433 51.2969V48.0156C19.9433 47.8291 20.0174 47.6503 20.1493 47.5184C20.2811 47.3866 20.46 47.3125 20.6464 47.3125ZM25.0996 44.2656C25.0996 44.0791 25.0255 43.9003 24.8936 43.7684C24.7618 43.6366 24.5829 43.5625 24.3964 43.5625C24.21 43.5625 24.0311 43.6366 23.8993 43.7684C23.7674 43.9003 23.6933 44.0791 23.6933 44.2656V51.2969C23.6933 51.4834 23.7674 51.6622 23.8993 51.7941C24.0311 51.9259 24.21 52 24.3964 52C24.5829 52 24.7618 51.9259 24.8936 51.7941C25.0255 51.6622 25.0996 51.4834 25.0996 51.2969V44.2656Z" fill="white"/>
<path d="M125.631 84.284H119.067C118.632 84.284 118.214 84.4569 117.906 84.7647C117.599 85.0724 117.426 85.4898 117.426 85.925V89.2071C117.426 89.6423 117.599 90.0597 117.906 90.3675C118.214 90.6752 118.632 90.8481 119.067 90.8481H119.887V94.1302C119.887 94.3478 119.974 94.5565 120.128 94.7103C120.282 94.8642 120.49 94.9507 120.708 94.9507H122.349C122.566 94.9507 122.775 94.8642 122.929 94.7103C123.083 94.5565 123.169 94.3478 123.169 94.1302V90.8481H125.631L129.733 94.1302V81.002L125.631 84.284ZM128.092 90.5199L126.451 89.2071H119.067V85.925H126.451L128.092 84.6122V90.5199ZM133.426 87.5661C133.426 88.9691 132.638 90.2409 131.374 90.8481V84.284C132.63 84.8994 133.426 86.1712 133.426 87.5661Z" fill="white"/>
<path d="M79.7115 89.2857C79.7115 88.6795 79.9523 88.0981 80.381 87.6695C80.8096 87.2408 81.391 87 81.9972 87C82.6034 87 83.1848 87.2408 83.6135 87.6695C84.0421 88.0981 84.2829 88.6795 84.2829 89.2857C84.2829 89.8919 84.0421 90.4733 83.6135 90.902C83.1848 91.3306 82.6034 91.5714 81.9972 91.5714C81.391 91.5714 80.8096 91.3306 80.381 90.902C79.9523 90.4733 79.7115 89.8919 79.7115 89.2857ZM87.4589 91.096L87.5069 91.1326C87.9918 91.492 88.5992 91.645 89.1966 91.5583C89.7939 91.4715 90.3327 91.152 90.6953 90.6695C91.0579 90.187 91.215 89.5806 91.1321 88.9827C91.0493 88.3849 90.7334 87.844 90.2533 87.4782C89.7732 87.1124 89.1678 86.9513 88.5694 87.0302C87.971 87.109 87.4281 87.4214 87.0591 87.8991C86.6901 88.3768 86.5251 88.981 86.6 89.58C86.6749 90.1789 86.9837 90.7239 87.4589 91.096ZM83.4464 92.7143C83.5899 92.4425 83.7868 92.2024 84.0253 92.0084C84.2637 91.8145 84.5389 91.6706 84.8342 91.5855C85.1296 91.5003 85.4391 91.4756 85.7442 91.5128C86.0493 91.55 86.3438 91.6483 86.6101 91.802C86.8763 91.9556 87.1088 92.1614 87.2937 92.407C87.4785 92.6526 87.612 92.9329 87.686 93.2313C87.76 93.5296 87.7731 93.8398 87.7245 94.1433C87.6758 94.4469 87.5665 94.7374 87.4029 94.9977C87.0883 95.4984 86.5919 95.8577 86.0179 96.0001C85.444 96.1425 84.8372 96.0569 84.325 95.7614C83.8128 95.4658 83.4352 94.9832 83.2713 94.415C83.1075 93.8468 83.1702 93.2372 83.4464 92.7143ZM79.1401 92.7143H82.1915C81.9884 93.2944 81.9442 93.9182 82.0636 94.5211C82.183 95.124 82.4615 95.684 82.8704 96.1429H82.5686C81.9794 96.1428 81.4046 96.3248 80.9228 96.664C80.441 97.0032 80.0758 97.483 79.8772 98.0377C79.4936 97.8836 79.1344 97.6746 78.8109 97.4171C77.9515 96.7257 77.4258 95.704 77.4258 94.4286C77.4258 93.9739 77.6064 93.5379 77.9279 93.2164C78.2494 92.8949 78.6854 92.7143 79.1401 92.7143ZM88.2829 96.1429C88.872 96.1428 89.4466 96.3249 89.9282 96.6641C90.4098 97.0033 90.7748 97.4831 90.9732 98.0377C91.3618 97.8789 91.7218 97.672 92.0406 97.4171C92.9001 96.7257 93.4258 95.704 93.4258 94.4286C93.4258 93.9739 93.2452 93.5379 92.9237 93.2164C92.6022 92.8949 92.1662 92.7143 91.7115 92.7143H88.6601C88.7858 93.072 88.8544 93.4571 88.8544 93.8571C88.8554 94.7007 88.5444 95.5148 87.9812 96.1429H88.2829ZM89.8681 98.3463C89.9515 98.5474 89.9972 98.7691 89.9972 99C89.9972 100.275 89.4726 101.297 88.6121 101.989C87.7652 102.669 86.6292 103 85.4258 103C84.2224 103 83.0864 102.669 82.2395 101.989C81.3801 101.297 80.8544 100.275 80.8544 99C80.8537 98.7747 80.8977 98.5515 80.9836 98.3433C81.0696 98.135 81.1958 97.9458 81.3551 97.7865C81.5144 97.6272 81.7036 97.5009 81.9119 97.415C82.1202 97.329 82.3433 97.2851 82.5686 97.2857H88.2829C88.6225 97.2856 88.9544 97.3864 89.2366 97.5752C89.5188 97.764 89.7386 98.0324 89.8681 98.3463Z" fill="white"/>
</svg>
