<svg width="141" height="140" viewBox="0 0 141 140" fill="none" xmlns="http://www.w3.org/2000/svg">
<circle cx="34.0644" cy="13.6152" r="1.123" fill="white"/>
<circle cx="37.8066" cy="13.6152" r="1.123" fill="white"/>
<circle cx="41.5488" cy="13.6152" r="1.123" fill="white"/>
<rect x="65.1328" y="12.4922" width="38.1821" height="2.24601" rx="1.123" fill="white"/>
<rect x="33.9414" y="19.4824" width="100.568" height="4.73802" rx="2.36901" stroke="white" stroke-width="2"/>
<rect x="105.878" y="34.0166" width="25.0804" height="1.123" rx="0.561502" stroke="white" stroke-width="1.123"/>
<rect x="105.878" y="38.5088" width="25.0804" height="1.123" rx="0.561502" stroke="white" stroke-width="1.123"/>
<rect x="105.878" y="43.001" width="25.0804" height="1.123" rx="0.561502" stroke="white" stroke-width="1.123"/>
<rect x="37.9951" y="37.0127" width="19.0911" height="1.123" rx="0.561502" stroke="white" stroke-width="1.123"/>
<rect x="37.9951" y="32.5166" width="19.0911" height="1.123" rx="0.561502" stroke="white" stroke-width="1.123"/>
<rect x="37.9951" y="41.501" width="19.0911" height="1.123" rx="0.561502" stroke="white" stroke-width="1.123"/>
<rect x="37.9951" y="45.9931" width="19.0911" height="1.123" rx="0.561502" stroke="white" stroke-width="1.123"/>
<rect x="98.0039" y="48.4297" width="26.2034" height="2" rx="1" fill="white"/>
<path d="M28.4492 75V13C28.4492 10.2386 30.6878 8 33.4492 8H135.001C137.762 8 140.001 10.2386 140.001 13V78.6156C140.001 81.377 137.762 83.6156 135.001 83.6156H134.501H130.001M84.2251 83.6156H92.501" stroke="white" stroke-width="2"/>
<path d="M62.1395 74.7932V32.4668C62.1395 29.7054 59.9009 27.4668 57.1395 27.4668H37.9414C35.18 27.4668 32.9414 29.7054 32.9414 32.4668V74.7932" stroke="white" stroke-width="2"/>
<path d="M92.502 79.125H85.002M130.502 79.125H131.51C134.272 79.125 136.51 76.8864 136.51 74.125V73.0015V32.4668C136.51 29.7054 134.272 27.4668 131.51 27.4668H70.3867C67.6253 27.4668 65.3867 29.7054 65.3867 32.4668V75.0015" stroke="white" stroke-width="2"/>
<path d="M91.8305 55.9125H73.8789C71.1175 55.9125 68.8789 53.6739 68.8789 50.9125V36.9551C68.8789 34.1937 71.1175 31.9551 73.8789 31.9551H96.0717C98.8331 31.9551 101.072 34.1937 101.072 36.9551V44.998" stroke="white" stroke-width="2"/>
<rect x="70.5" y="59.502" width="21" height="1" rx="0.5" stroke="white"/>
<rect x="70.5" y="63.5" width="21" height="1" rx="0.5" stroke="white"/>
<rect x="70.5" y="71.498" width="21" height="1" rx="0.5" stroke="white"/>
<rect x="70.5" y="67.5" width="21" height="1" rx="0.5" stroke="white"/>
<rect x="37.9951" y="54.9775" width="19.0911" height="1.123" rx="0.561502" stroke="white" stroke-width="1.123"/>
<rect x="37.9951" y="59.4697" width="19.0911" height="1.123" rx="0.561502" stroke="white" stroke-width="1.123"/>
<rect x="37.9951" y="68.4541" width="19.0911" height="1.123" rx="0.561502" stroke="white" stroke-width="1.123"/>
<rect x="37.9951" y="72.9463" width="19.0911" height="1.123" rx="0.561502" stroke="white" stroke-width="1.123"/>
<rect x="37.9951" y="63.9619" width="19.0911" height="1.123" rx="0.561502" stroke="white" stroke-width="1.123"/>
<rect x="37.9951" y="50.4853" width="19.0911" height="1.123" rx="0.561502" stroke="white" stroke-width="1.123"/>
<rect x="92" y="44.9375" width="37.6795" height="73.6156" rx="4" stroke="white" stroke-width="2"/>
<rect x="105" y="113.562" width="10.4814" height="2.24601" rx="1.123" fill="white"/>
<rect x="97" y="83.1172" width="27.1981" height="27.1981" rx="4" stroke="white" stroke-width="2"/>
<rect x="101.562" y="87.1709" width="19.0911" height="1.123" rx="0.561502" stroke="white" stroke-width="1.123"/>
<rect x="96.5" y="53.5" width="28" height="1" rx="0.5" stroke="white"/>
<rect x="101.562" y="91.6631" width="19.0911" height="1.123" rx="0.561502" stroke="white" stroke-width="1.123"/>
<rect x="101.562" y="100.647" width="19.0911" height="1.123" rx="0.561502" stroke="white" stroke-width="1.123"/>
<rect x="101.562" y="105.14" width="19.0911" height="1.123" rx="0.561502" stroke="white" stroke-width="1.123"/>
<rect x="101.562" y="96.1553" width="19.0911" height="1.123" rx="0.561502" stroke="white" stroke-width="1.123"/>
<rect x="97" y="57.6621" width="26.4494" height="21.9574" rx="4" stroke="white" stroke-width="2"/>
<path d="M1 77.6966C1 76.1437 2.25892 74.8848 3.81188 74.8848H81.2325C82.7855 74.8848 84.0444 76.1437 84.0444 77.6966V127.72C84.0444 129.273 82.7855 130.532 81.2325 130.532H3.81188C2.25892 130.532 1 129.273 1 127.72V77.6966Z" stroke="white" stroke-width="2"/>
<rect x="27.9688" y="77.3066" width="29.1092" height="2.24601" rx="1.123" fill="white"/>
<rect x="36.6836" y="125.541" width="12.7274" height="2.24601" rx="1.123" fill="white"/>
<rect x="5.14453" y="82.7852" width="74.2738" height="39.4532" rx="4" stroke="white" stroke-width="2"/>
<rect x="10.9492" y="86.9316" width="31.9916" height="22.0428" rx="4" stroke="white" stroke-width="2"/>
<rect x="10.571" y="113.083" width="63.4234" height="1.2436" rx="0.621798" stroke="white" stroke-width="1.2436"/>
<rect x="10.571" y="117.229" width="63.4234" height="1.2436" rx="0.621798" stroke="white" stroke-width="1.2436"/>
<rect x="47.0515" y="87.3816" width="26.9446" height="1.2436" rx="0.621798" stroke="white" stroke-width="1.2436"/>
<rect x="47.0515" y="92.3581" width="26.9446" height="1.2436" rx="0.621798" stroke="white" stroke-width="1.2436"/>
<rect x="47.0515" y="97.3327" width="26.9446" height="1.2436" rx="0.621798" stroke="white" stroke-width="1.2436"/>
<rect x="47.0515" y="102.307" width="26.9446" height="1.2436" rx="0.621798" stroke="white" stroke-width="1.2436"/>
<rect x="47.0515" y="107.28" width="26.9446" height="1.2436" rx="0.621798" stroke="white" stroke-width="1.2436"/>
</svg>
